/* XPM */
static char *groimp[] = {
/* columns rows colors chars-per-pixel */
"32 32 176 2 ",
"   c #000000",
".  c #040600",
"X  c #050700",
"o  c #0A0E01",
"O  c #0F1501",
"+  c #141B01",
"@  c #141B04",
"#  c #151C04",
"$  c #1A2401",
"%  c #1A2104",
"&  c #202906",
"*  c #29330B",
"=  c #2D390E",
"-  c #324502",
";  c #364A03",
":  c #394E03",
">  c #3B5203",
",  c #344112",
"<  c #384615",
"1  c #3F5014",
"2  c #2A7800",
"3  c #2B7801",
"4  c #2C7901",
"5  c #2F7A04",
"6  c #307A05",
"7  c #317A07",
"8  c #347B09",
"9  c #377C0C",
"0  c #397D0D",
"q  c #3F7F12",
"w  c #455F03",
"e  c #41501B",
"r  c #47521B",
"t  c #4F5E22",
"y  c #458118",
"u  c #4A821D",
"i  c #4D831F",
"p  c #6D9605",
"a  c #739E06",
"s  c #74A006",
"d  c #7BA906",
"f  c #7FAF06",
"g  c #4E8320",
"h  c #4F8421",
"j  c #518422",
"k  c #538524",
"l  c #558626",
"z  c #588628",
"x  c #5B882B",
"c  c #73902B",
"v  c #638A33",
"b  c #668B36",
"n  c #688C37",
"m  c #698C38",
"M  c #718F3F",
"N  c #6F8143",
"B  c #728345",
"V  c #738F41",
"C  c #748F41",
"Z  c #728348",
"A  c #76874A",
"S  c #76884A",
"D  c #7A9147",
"F  c #86B907",
"G  c #96CF07",
"H  c #9BD608",
"J  c #A6E508",
"K  c #ABEC08",
"L  c #ACED08",
"P  c #B5F909",
"I  c #B9FF09",
"U  c #BDFF17",
"Y  c #C1FF25",
"T  c #83944F",
"R  c #889653",
"E  c #889654",
"W  c #8C9757",
"Q  c #86975C",
"!  c #87985D",
"~  c #8D9858",
"^  c #92995D",
"/  c #989B62",
"(  c #9B9C64",
")  c #9D9D66",
"_  c #A29E6A",
"`  c #A59F6D",
"'  c #98A66F",
"]  c #98A871",
"[  c #99A972",
"{  c #AAA172",
"}  c #B0A377",
"|  c #B3A379",
" . c #B6A47C",
".. c #B7A57D",
"X. c #CFFF56",
"o. c #BAA680",
"O. c #BCA781",
"+. c #BEA783",
"@. c #A6B482",
"#. c #ADBB8B",
"$. c #AFBD8C",
"%. c #C9A583",
"&. c #CAA585",
"*. c #C1A886",
"=. c #C4A988",
"-. c #C4A989",
";. c #CBAB8F",
":. c #CEAC92",
">. c #D0AD94",
",. c #D5AF98",
"<. c #D8B09B",
"1. c #DBB19D",
"2. c #E2B3A0",
"3. c #E0B3A2",
"4. c #E4B4A6",
"5. c #E7B5A8",
"6. c #EAB6AB",
"7. c #EBB6AC",
"8. c #EEB7AE",
"9. c #F1B8B2",
"0. c #F4B9B4",
"q. c #F5B9B4",
"w. c #F9BAB7",
"e. c #F9BAB8",
"r. c #FDBBBB",
"t. c #FBBCBB",
"y. c #FDBCBB",
"u. c #FBBFBD",
"i. c #FDBFBF",
"p. c #B7C0A0",
"a. c #DDFF88",
"s. c #E4FF9F",
"d. c #C9D3B0",
"f. c #D2DBBD",
"g. c #FBC1BF",
"h. c #D7DFC4",
"j. c #FBC2C1",
"k. c #FDC1C1",
"l. c #FBC4C2",
"z. c #FBC6C5",
"x. c #FCC9C8",
"c. c #FDC9C9",
"v. c #FDCCCC",
"b. c #FDCFCF",
"n. c #F8D7C2",
"m. c #FDD0CF",
"M. c #FDD1D0",
"N. c #FED4D4",
"B. c #FED5D5",
"V. c #FED8D8",
"C. c #FEDADA",
"Z. c #FEDDDD",
"A. c #FEDFDF",
"S. c #DAE1C7",
"D. c #DFE5CF",
"F. c #E2E7D3",
"G. c #ECEADB",
"H. c #E9EEDF",
"J. c #EAF1D9",
"K. c #FEE0E0",
"L. c #FEE3E3",
"P. c #FEE4E4",
"I. c #FEE6E6",
"U. c #FEE7E7",
"Y. c #F9E8E5",
"T. c #FEEBEB",
"R. c #F7FFE3",
"E. c #FFF1F1",
"W. c #FFF3F3",
"Q. c #FAF6F2",
"!. c #FFF7F7",
"~. c #FFF9F9",
"^. c #FBFCF9",
"/. c #FDFEFB",
"(. c #FFFCFC",
"). c #FFFFFF",
/* pixels */
"2 2 2 2 2 2 2 2 2 2 D 1.e.r.r.8.| z 2 2 2 2 2 2 2 2 2 2 2 2 2 2 ",
"2 2 2 2 2 2 2 2 h ,.r.x.C.I.I.M.u.w.E 2 2 2 2 2 2 2 2 2 2 2 2 2 ",
"2 2 2 2 2 2 2 0 4.u.I.).).).).).~.M.r._ 2 2 2 2 2 2 2 2 2 2 2 2 ",
"2 2 2 2 2 2 2 *.r.E.).).).).).).).).B.r.k b -.3.6.8.| m 5 2 2 2 ",
"2 2 2 2 2 2 j r.L.).).).).).).).).).~.i.q.y.g.M.B.B.u.r.,.q 2 2 ",
"2 2 2 2 2 2 W r.~.).).).).).).f.] $.G.g.k.I.).).).).).I.u.5.i 2 ",
"2 2 2 2 2 2 -.z.).).).).Q , o         & t p.).).).).).).E.j.,.2 ",
"2 2 2 2 2 2 o.l.).).S.,                     S /.).).).).).I.r.n ",
"2 2 2 2 2 2 { t.~.] o           + o           1 J.).).).).).j.;.",
"2 2 2 g O.8.r.r.&.X       ; F K I I H s +       c ).).).).).B.5.",
"2 4 E w.u.B.I.Y.*     o a I I I I I I I L - X a I s.).).).).C.9.",
"2 ~ r.m.~.).).Z       f I I I I I I I I I I H I I U R.).).).M.8.",
"u w.M.).).).).@     w I I I I I I I I I I I I I I I a.).).).t.` ",
"O.u.~.).).).F.      J I I I I I I I I I I I I I I I X.).).Z.r.x ",
"8.B.).).).).@.    + I I I I I I I I I I I I I I I I Y ).I.r...2 ",
"r.L.).).).).N     : I I I I I I I I I I I I I I I I I n.r.,.6 4 ",
"r.I.).).).).N     : I I I I I I                       3.k.w.v 2 ",
"q.B.).).).).@.    + I I I I I I                     # ~.).z.q.y ",
"*.k.).).).).F.      J I I I I I                     e ).).~.i./ ",
"n i.C.).).).).+     w I I I I I G G G G G G d       B ).).).b.7.",
"2 ` r.L.).).).B       f I I I I I I I I I I >     o h.).).).I.r.",
"2 5 *.r.z.I.E.Q.*     o a I I I I I I I P w       Q ).).).).L.r.",
"2 2 2 V 8.r.r.r.%.X       ; F K I I L p $       < ).).).).).Z.r.",
"2 2 2 2 2 u ^ i.Z.' o           + O           = D.).).).).).g.>.",
"2 2 2 2 2 2 C r.E.).S.,                   X A ^.).).).).).T.r.M ",
"2 2 2 2 2 2 T r.!.).).).Q , o         % r d.).).).).).).T.w.<.4 ",
"2 2 2 2 2 2 k r.L.).).).).).).f.] $.H.B.r.x.T.).).).E.C.r.:.9 2 ",
"2 2 2 2 2 2 2 4.v.).).).).).).).).).).b.e.3.r.r.u.t.r.q.{ 6 2 2 ",
"2 2 2 2 2 2 2 R r.Z.).).).).).).).).T.r.W 2 b ( ) _ D 9 2 2 2 2 ",
"2 2 2 2 2 2 2 2 } r.Z.(.).).).).).L.r.1.5 2 2 2 2 2 2 2 2 2 2 2 ",
"2 2 2 2 2 2 2 2 5  .r.i.C.L.U.C.k.r. .9 2 2 2 2 2 2 2 2 2 2 2 2 ",
"2 2 2 2 2 2 2 2 2 2 l -.w.r.r.q.O.V 2 2 2 2 2 2 2 2 2 2 2 2 2 2 "
};
